<svg width="168" height="28" viewBox="0 0 168 28" fill="none" xmlns="http://www.w3.org/2000/svg">
<g clip-path="url(#clip0_7535_1208)">
<path d="M22.1046 26.6844H14.0663V13.9315C14.0663 12.591 13.107 11.7317 11.9774 11.7317C10.8809 11.7317 9.55605 12.6254 9.55605 13.9316V26.6844H2.34145V6.36929L0.015625 4.7193C2.67376 3.82557 7.13051 1.90065 9.55605 0.560059V11.216C10.5197 10.0129 12.8744 8.46608 15.865 8.46608C19.6528 8.46608 21.2809 10.9754 21.2809 13.966V24.7326C21.2809 25.0564 21.5555 25.7071 22.1047 26.6844H22.1046ZM104.959 26.6844H96.9205V13.9315C96.9205 12.591 95.9612 11.7317 94.8315 11.7317C93.735 11.7317 92.4102 12.6254 92.4102 13.9316V26.6844H85.1956V6.36929L82.8698 4.7193C85.5279 3.82557 89.9847 1.90065 92.4102 0.560059V11.216C93.3738 10.0129 95.7286 8.46608 98.7191 8.46608C102.507 8.46608 104.135 10.9754 104.135 13.966V24.7326C104.135 25.0564 104.41 25.7071 104.959 26.6844ZM39.6756 23.6515V24.9242C38.0759 26.3 36.3096 27.4351 32.5106 27.4351C26.512 27.4351 22.8462 23.4108 22.8462 18.4578C22.8462 12.5417 26.612 8.51741 32.144 8.51741C37.6094 8.51741 39.6756 12.2666 39.6756 16.9788H29.6849C30.1181 22.4133 33.1438 24.8898 35.9098 24.8898C37.2428 24.8898 38.7424 24.4427 39.6756 23.6515ZM31.8026 15.9097C33.4104 15.9097 33.5939 15.4516 33.5939 14.1066C33.5939 13.0754 33.4105 10.5336 31.8026 10.5336C30.1948 10.5336 30.0114 13.0754 30.0114 14.1066C30.0114 15.4516 30.1948 15.9097 31.8026 15.9097ZM167.984 23.6463V24.919C166.385 26.2948 164.618 27.4298 160.819 27.4298C154.821 27.4298 151.155 23.4056 151.155 18.4526C151.155 12.5365 154.921 8.51217 160.453 8.51217C165.918 8.51217 167.984 12.2614 167.984 16.9736H157.994C158.427 22.4081 161.453 24.8846 164.219 24.8846C165.552 24.8846 167.051 24.4374 167.984 23.6463ZM160.111 15.9044C161.719 15.9044 161.903 15.4463 161.903 14.1013C161.903 13.0701 161.719 10.5283 160.111 10.5283C158.504 10.5283 158.32 13.0701 158.32 14.1013C158.32 15.4463 158.504 15.9044 160.111 15.9044ZM60.0645 23.4948L60.8626 23.6642C60.4975 25.1387 59.4337 27.4351 56.0112 27.4351C53.1535 27.4351 52.3517 25.6809 51.7536 23.8235C51.2552 25.5433 49.299 27.4351 45.5774 27.4351C42.2545 27.4351 40.4269 25.9561 40.4269 23.17C40.4269 20.0744 43.4464 17.8043 50.9893 15.5685V12.3011C50.9893 10.6157 50.0921 10.0309 49.0953 10.0309C48.1981 10.0309 46.7736 10.994 46.7736 12.5075C46.7736 13.2297 46.9065 13.78 47.0062 14.5023C47.0062 15.4311 45.9429 16.8413 44.3146 16.8413C42.5203 16.8413 41.6564 15.5342 41.6564 14.0208C41.6564 11.5443 43.9491 8.51748 49.9636 8.51748C56.2105 8.51748 58.2042 11.8195 58.2042 14.9839V23.3765C58.2042 23.8924 58.4036 24.4083 58.9685 24.4083C59.467 24.4083 59.8062 24.125 60.0645 23.4949V23.4948ZM51.0289 22.8603V16.6282C48.5017 17.6554 47.6268 20.1894 47.6268 22.1412C47.6268 23.7164 48.1129 24.4355 49.2793 24.4355C50.2999 24.4355 51.0289 23.7848 51.0289 22.8603ZM70.3961 26.6844H62.0975V6.36929L59.8864 4.7193C62.4134 3.82557 67.0568 1.90065 69.3627 0.560059V24.7326C69.3627 25.0413 69.7072 25.6919 70.3961 26.6844ZM115.869 26.6844H107.57V6.36929L105.359 4.7193C107.886 3.82557 112.53 1.90065 114.836 0.560059V24.7326C114.836 25.0413 115.18 25.6919 115.869 26.6844ZM82.8394 24.5793V25.8523C81.6302 26.8845 79.6254 27.4351 77.4616 27.4351C73.8976 27.4351 72.6566 24.7857 72.6566 22.5493V10.5948H70.9378L79.9755 2.66195V9.1993H82.8394V10.5948H79.9755V23.5471C79.9755 24.5793 80.5801 25.061 81.312 25.061C81.7574 25.061 82.553 24.8545 82.8394 24.5793ZM122.765 8.23596C120.711 8.23596 119.074 6.53397 119.074 4.39801C119.074 2.26212 120.711 0.560059 122.765 0.560059C124.819 0.560059 126.456 2.26212 126.456 4.39801C126.456 6.5339 124.819 8.23596 122.765 8.23596ZM127.623 26.6843H119.151V13.8936L116.82 12.2388C119.484 11.3424 123.952 9.41168 126.383 8.06712V24.7326C126.383 25.0535 126.796 25.7042 127.623 26.6844V26.6843ZM150.613 26.6843H142.314V13.8936C142.314 12.5491 141.355 11.6872 140.225 11.6872C139.128 11.6872 137.804 12.5835 137.804 13.8936V26.6843H130.589V13.8936L128.263 12.2388C130.921 11.3424 135.188 9.41168 137.614 8.06712V11.5837C138.81 9.99782 141.122 8.41186 144.113 8.41186C147.9 8.41186 149.529 10.9287 149.529 13.9281V24.7326C149.529 25.0476 149.89 25.6983 150.613 26.6844V26.6843Z" fill="white"/>
</g>
<defs>
<clipPath id="clip0_7535_1208">
<rect width="167.969" height="26.875" fill="white" transform="translate(0.015625 0.560059)"/>
</clipPath>
</defs>
</svg>
