<svg width="20" height="21" viewBox="0 0 20 21" fill="none" xmlns="http://www.w3.org/2000/svg">
<path d="M13.3008 3.82031H15.1953V0.636719C15.026 0.623697 14.6875 0.597656 14.1797 0.558594C13.6719 0.519531 13.0924 0.5 12.4414 0.5C11.7643 0.5 11.1458 0.604166 10.5859 0.8125C10.026 1.00781 9.54427 1.30404 9.14062 1.70117C8.73698 2.09831 8.42448 2.58984 8.20312 3.17578C7.98177 3.76172 7.87109 4.4388 7.87109 5.20703V7.82422H4.80469V11.3789H7.87109V20.5H11.543V11.3789H14.6094L15.0781 7.82422H11.543V5.55859C11.543 5.03776 11.6536 4.61784 11.875 4.29883C12.0964 3.97982 12.5716 3.82031 13.3008 3.82031Z" fill="#231F20"/>
</svg>
