<svg width="191" height="30" viewBox="0 0 191 30" fill="none" xmlns="http://www.w3.org/2000/svg">
<g clip-path="url(#clip0_7535_1247)">
<g clip-path="url(#clip1_7535_1247)">
<path fill-rule="evenodd" clip-rule="evenodd" d="M25.118 29.162H15.978V14.926C15.978 13.43 14.886 12.471 13.602 12.471C12.355 12.471 10.849 13.468 10.849 14.926V29.162H2.645V6.485L0 4.643C3.023 3.645 8.09 1.496 10.849 0V11.895C11.944 10.552 14.622 8.825 18.022 8.825C22.33 8.825 24.182 11.626 24.182 14.965V26.983C24.182 27.345 24.493 28.071 25.118 29.162ZM119.333 29.162H110.193V14.926C110.193 13.43 109.101 12.471 107.817 12.471C106.57 12.471 105.063 13.468 105.063 14.926V29.162H96.86V6.485L94.215 4.643C97.237 3.645 102.305 1.496 105.063 0V11.895C106.159 10.552 108.837 8.825 112.237 8.825C116.545 8.825 118.396 11.626 118.396 14.965V26.983C118.396 27.345 118.708 28.071 119.333 29.162ZM45.098 25.777V27.197C43.279 28.733 41.271 30 36.951 30C30.129 30 25.961 25.508 25.961 19.979C25.961 13.375 30.243 8.883 36.534 8.883C42.748 8.883 45.098 13.068 45.098 18.328H33.738C34.23 24.394 37.671 27.158 40.816 27.158C42.332 27.158 44.036 26.66 45.098 25.777ZM36.146 17.134C37.974 17.134 38.182 16.623 38.182 15.122C38.182 13.971 37.974 11.133 36.146 11.133C34.317 11.133 34.109 13.971 34.109 15.122C34.109 16.623 34.317 17.134 36.146 17.134ZM191 25.771V27.191C189.181 28.727 187.173 29.994 182.853 29.994C176.031 29.994 171.863 25.502 171.863 19.973C171.863 13.369 176.145 8.877 182.436 8.877C188.651 8.877 191 13.062 191 18.322H179.64C180.132 24.388 183.573 27.152 186.718 27.152C188.234 27.152 189.938 26.654 191 25.771ZM182.048 17.129C183.876 17.129 184.084 16.617 184.084 15.116C184.084 13.965 183.876 11.127 182.048 11.127C180.219 11.127 180.011 13.965 180.011 15.116C180.011 16.617 180.219 17.129 182.048 17.129ZM68.283 25.602L69.19 25.791C68.775 27.437 67.565 30 63.673 30C60.423 30 59.513 28.042 58.833 25.969C58.264 27.889 56.04 30 51.808 30C48.029 30 45.951 28.349 45.951 25.239C45.951 21.783 49.385 19.249 57.962 16.754V13.106C57.962 11.225 56.942 10.572 55.808 10.572C54.788 10.572 53.168 11.647 53.168 13.337C53.168 14.143 53.319 14.757 53.433 15.563C53.433 16.6 52.223 18.174 50.373 18.174C48.332 18.174 47.349 16.715 47.349 15.026C47.349 12.261 49.957 8.883 56.796 8.883C63.899 8.883 66.166 12.569 66.166 16.101V25.469C66.166 26.045 66.393 26.621 67.036 26.621C67.602 26.621 67.988 26.305 68.282 25.601L68.283 25.602ZM58.008 24.893V17.937C55.134 19.083 54.139 21.912 54.139 24.091C54.139 25.849 54.692 26.651 56.019 26.651C57.179 26.651 58.008 25.925 58.008 24.893ZM80.031 29.162H70.594V6.485L68.08 4.643C70.954 3.645 76.234 1.496 78.856 0V26.983C78.856 27.328 79.247 28.054 80.031 29.162ZM131.739 29.162H122.302V6.485L119.788 4.643C122.662 3.645 127.942 1.496 130.564 0V26.983C130.564 27.328 130.955 28.054 131.739 29.162ZM94.18 26.812V28.233C92.805 29.385 90.526 30 88.065 30C84.012 30 82.601 27.043 82.601 24.546V11.202H80.647L90.924 2.346V9.644H94.18V11.202H90.924V25.66C90.924 26.812 91.611 27.35 92.444 27.35C92.95 27.35 93.854 27.12 94.18 26.812ZM139.58 8.568C137.245 8.568 135.383 6.668 135.383 4.284C135.383 1.9 137.245 0 139.58 0C141.916 0 143.777 1.9 143.777 4.284C143.777 6.669 141.916 8.568 139.58 8.568ZM145.104 29.162H135.471V14.884L132.821 13.037C135.85 12.036 140.93 9.881 143.694 8.38V26.983C143.694 27.341 144.164 28.068 145.104 29.162ZM171.246 29.162H161.81V14.884C161.81 13.383 160.719 12.421 159.434 12.421C158.187 12.421 156.681 13.421 156.681 14.884V29.162H148.477V14.883L145.832 13.037C148.855 12.036 153.707 9.881 156.465 8.38V12.305C157.825 10.535 160.455 8.765 163.855 8.765C168.162 8.765 170.014 11.575 170.014 14.922V26.983C170.014 27.335 170.424 28.061 171.246 29.162Z" fill="black"/>
</g>
</g>
<defs>
<clipPath id="clip0_7535_1247">
<rect width="191" height="30" fill="white"/>
</clipPath>
<clipPath id="clip1_7535_1247">
<rect width="191" height="30" fill="white"/>
</clipPath>
</defs>
</svg>
