<svg width="20" height="21" viewBox="0 0 20 21" fill="none" xmlns="http://www.w3.org/2000/svg">
<path d="M14.1992 0.5H5.80078C5.00651 0.5 4.25781 0.64974 3.55469 0.949219C2.85156 1.26172 2.23633 1.68164 1.70898 2.20898C1.18164 2.73633 0.761719 3.35156 0.449219 4.05469C0.14974 4.75781 0 5.50651 0 6.30078V14.6992C0 15.4935 0.14974 16.2422 0.449219 16.9453C0.761719 17.6484 1.18164 18.2637 1.70898 18.791C2.23633 19.3184 2.85156 19.7383 3.55469 20.0508C4.25781 20.3503 5.00651 20.5 5.80078 20.5H14.1992C14.9935 20.5 15.7422 20.3503 16.4453 20.0508C17.1484 19.7383 17.7637 19.3184 18.291 18.791C18.8184 18.2637 19.2383 17.6484 19.5508 16.9453C19.8503 16.2422 20 15.4935 20 14.6992V6.30078C20 5.50651 19.8503 4.75781 19.5508 4.05469C19.2383 3.35156 18.8184 2.73633 18.291 2.20898C17.7637 1.68164 17.1484 1.26172 16.4453 0.949219C15.7422 0.64974 14.9935 0.5 14.1992 0.5ZM9.27734 13.8789C8.36589 13.8789 7.58464 13.5534 6.93359 12.9023C6.28255 12.2513 5.95703 11.4635 5.95703 10.5391C5.95703 9.61458 6.28581 8.82357 6.94336 8.16602C7.60091 7.50846 8.40495 7.1862 9.35547 7.19922C10.2539 7.21224 11.0254 7.54102 11.6699 8.18555C12.3145 8.83008 12.6367 9.62109 12.6367 10.5586C12.6367 11.4831 12.3079 12.2676 11.6504 12.9121C10.9928 13.5566 10.2018 13.8789 9.27734 13.8789ZM9.39453 5.38281C10.0846 5.39583 10.7422 5.53906 11.3672 5.8125C11.9792 6.08594 12.5163 6.45703 12.9785 6.92578C13.4408 7.39453 13.8021 7.94141 14.0625 8.56641C14.3229 9.19141 14.4531 9.86198 14.4531 10.5781C14.4401 11.2943 14.2969 11.9648 14.0234 12.5898C13.75 13.2148 13.3789 13.7585 12.9102 14.2207C12.4414 14.6829 11.8945 15.0443 11.2695 15.3047C10.6315 15.5651 9.95443 15.6953 9.23828 15.6953C8.53516 15.6823 7.87109 15.5391 7.24609 15.2656C6.62109 14.9922 6.08073 14.6211 5.625 14.1523C5.16927 13.6836 4.80469 13.1432 4.53125 12.5312C4.27083 11.9062 4.14062 11.2422 4.14062 10.5391C4.14062 9.82292 4.27734 9.15234 4.55078 8.52734C4.82422 7.88932 5.19857 7.33594 5.67383 6.86719C6.14909 6.39844 6.70573 6.03385 7.34375 5.77344C7.98177 5.5 8.66536 5.36979 9.39453 5.38281ZM14.6484 3.97656C14.987 3.97656 15.2734 4.09375 15.5078 4.32812C15.7422 4.5625 15.8594 4.84896 15.8594 5.1875C15.8594 5.51302 15.7422 5.79297 15.5078 6.02734C15.2734 6.26172 14.987 6.37891 14.6484 6.37891C14.3229 6.37891 14.0397 6.26172 13.7988 6.02734C13.5579 5.79297 13.4375 5.51302 13.4375 5.1875C13.4375 5.1875 13.4375 5.18425 13.4375 5.17773C13.4375 5.17122 13.4375 5.16797 13.4375 5.16797C13.4505 4.84245 13.5742 4.5625 13.8086 4.32812C14.043 4.09375 14.3229 3.97656 14.6484 3.97656Z" fill="#231F20"/>
</svg>
