<svg width="20" height="21" viewBox="0 0 20 21" fill="none" xmlns="http://www.w3.org/2000/svg">
<path d="M10.2734 0.5C8.97135 0.5 7.82552 0.701822 6.83594 1.10547C5.84635 1.50912 5.01628 2.04622 4.3457 2.7168C3.67513 3.38737 3.17057 4.16537 2.83203 5.05078C2.48047 5.92318 2.30469 6.83464 2.30469 7.78516C2.30469 8.67057 2.52604 9.58203 2.96875 10.5195C3.41146 11.457 4.01042 12.1016 4.76562 12.4531C4.86979 12.5052 4.95443 12.5182 5.01953 12.4922C5.08464 12.4661 5.13021 12.3945 5.15625 12.2773C5.18229 12.1992 5.23438 12.0007 5.3125 11.6816C5.39062 11.3626 5.44922 11.1055 5.48828 10.9102C5.5013 10.8581 5.50456 10.8027 5.49805 10.7441C5.49154 10.6855 5.46224 10.6302 5.41016 10.5781C5.16276 10.2786 4.95117 9.875 4.77539 9.36719C4.59961 8.85938 4.51172 8.34505 4.51172 7.82422C4.51172 7.16016 4.63542 6.51562 4.88281 5.89062C5.13021 5.26562 5.48503 4.70898 5.94727 4.2207C6.40951 3.73242 6.97917 3.33854 7.65625 3.03906C8.33333 2.7526 9.09505 2.60938 9.94141 2.60938C10.6836 2.60938 11.3607 2.72656 11.9727 2.96094C12.5977 3.20833 13.1315 3.54688 13.5742 3.97656C14.0169 4.40625 14.362 4.92057 14.6094 5.51953C14.8568 6.11849 14.9805 6.77604 14.9805 7.49219C14.9805 8.3125 14.8828 9.0612 14.6875 9.73828C14.4922 10.4154 14.2253 10.9948 13.8867 11.4766C13.5482 11.9583 13.151 12.3359 12.6953 12.6094C12.2266 12.8828 11.7253 13.0195 11.1914 13.0195C10.6055 13.0195 10.127 12.8047 9.75586 12.375C9.38477 11.9453 9.27083 11.431 9.41406 10.832C9.58333 10.1159 9.79167 9.39974 10.0391 8.68359C10.2865 7.96745 10.4102 7.34896 10.4102 6.82812C10.4102 6.3724 10.2832 5.97526 10.0293 5.63672C9.77539 5.29818 9.39453 5.12891 8.88672 5.12891C8.28776 5.12891 7.77344 5.40885 7.34375 5.96875C6.91406 6.52865 6.69922 7.22526 6.69922 8.05859C6.69922 8.59245 6.76107 9.02214 6.88477 9.34766C7.00846 9.67318 7.07031 9.83594 7.07031 9.83594C7.07031 9.83594 7.00521 10.1094 6.875 10.6562C6.74479 11.1901 6.59831 11.7988 6.43555 12.4824C6.27279 13.166 6.11979 13.8398 5.97656 14.5039C5.82031 15.1549 5.71615 15.5977 5.66406 15.832C5.53385 16.3398 5.47852 16.916 5.49805 17.5605C5.51758 18.2051 5.55339 18.7682 5.60547 19.25C5.63151 19.4453 5.65755 19.6536 5.68359 19.875C5.70964 20.0964 5.74219 20.3047 5.78125 20.5C5.78125 20.5 5.90169 20.3372 6.14258 20.0117C6.38346 19.6862 6.61458 19.3086 6.83594 18.8789C7.05729 18.5013 7.26888 18.0944 7.4707 17.6582C7.67253 17.222 7.82552 16.8086 7.92969 16.418C8.00781 16.1315 8.1543 15.5814 8.36914 14.7676C8.58398 13.9538 8.69141 13.5469 8.69141 13.5469C8.88672 13.9245 9.24154 14.25 9.75586 14.5234C10.2702 14.7969 10.8333 14.9336 11.4453 14.9336C12.3438 14.9336 13.1771 14.7383 13.9453 14.3477C14.7135 13.957 15.3743 13.4232 15.9277 12.7461C16.4811 12.069 16.9141 11.2747 17.2266 10.3633C17.5391 9.46484 17.6953 8.49479 17.6953 7.45312C17.6953 6.46354 17.5 5.53906 17.1094 4.67969C16.7318 3.83333 16.2109 3.10091 15.5469 2.48242C14.8828 1.86393 14.0951 1.37891 13.1836 1.02734C12.2852 0.675781 11.3151 0.5 10.2734 0.5Z" fill="#231F20"/>
</svg>
