<svg width="20" height="21" viewBox="0 0 20 21" fill="none" xmlns="http://www.w3.org/2000/svg">
<path d="M19.4531 2.66797C19.0495 2.90234 18.6296 3.10417 18.1934 3.27344C17.7572 3.44271 17.3047 3.57292 16.8359 3.66406C16.4714 3.27344 16.0286 2.96094 15.5078 2.72656C14.987 2.49219 14.4336 2.375 13.8477 2.375C13.2747 2.375 12.7409 2.47917 12.2461 2.6875C11.7513 2.90885 11.3184 3.20508 10.9473 3.57617C10.5762 3.94727 10.2799 4.38021 10.0586 4.875C9.85026 5.38281 9.74609 5.91667 9.74609 6.47656C9.74609 6.63281 9.75586 6.78906 9.77539 6.94531C9.79492 7.10156 9.81771 7.25781 9.84375 7.41406C8.9974 7.375 8.17708 7.24479 7.38281 7.02344C6.57552 6.80208 5.8138 6.50586 5.09766 6.13477C4.38151 5.76367 3.71094 5.32422 3.08594 4.81641C2.46094 4.30859 1.89453 3.74219 1.38672 3.11719C1.21745 3.42969 1.08398 3.75846 0.986328 4.10352C0.888672 4.44857 0.839844 4.8099 0.839844 5.1875C0.839844 5.90365 1.00586 6.5612 1.33789 7.16016C1.66992 7.75911 2.10938 8.24089 2.65625 8.60547C2.31771 8.59245 1.99219 8.54036 1.67969 8.44922C1.36719 8.35807 1.07422 8.24089 0.800781 8.09766C0.800781 8.09766 0.800781 8.10091 0.800781 8.10742C0.800781 8.11393 0.800781 8.1237 0.800781 8.13672C0.800781 9.13932 1.11654 10.015 1.74805 10.7637C2.37956 11.5124 3.16406 11.9779 4.10156 12.1602C3.93229 12.2122 3.75651 12.248 3.57422 12.2676C3.39193 12.2871 3.20312 12.2969 3.00781 12.2969C2.8776 12.2969 2.7474 12.2936 2.61719 12.2871C2.48698 12.2806 2.36328 12.2643 2.24609 12.2383C2.50651 13.0456 2.98503 13.7161 3.68164 14.25C4.37826 14.7839 5.17578 15.0638 6.07422 15.0898C5.37109 15.6367 4.58659 16.0664 3.7207 16.3789C2.85482 16.6914 1.9401 16.8477 0.976562 16.8477C0.807292 16.8477 0.641276 16.8411 0.478516 16.8281C0.315755 16.8151 0.15625 16.8021 0 16.7891C0.455729 17.0755 0.93099 17.3359 1.42578 17.5703C1.92057 17.7917 2.43164 17.9805 2.95898 18.1367C3.48633 18.293 4.02995 18.4167 4.58984 18.5078C5.14974 18.5859 5.71615 18.625 6.28906 18.625C8.17708 18.625 9.85026 18.2734 11.3086 17.5703C12.7539 16.8542 13.9714 15.9362 14.9609 14.8164C15.9505 13.6966 16.6992 12.4466 17.207 11.0664C17.7148 9.67318 17.9688 8.29948 17.9688 6.94531C17.9688 6.86719 17.9688 6.78255 17.9688 6.69141C17.9688 6.60026 17.9622 6.50911 17.9492 6.41797C18.3529 6.13151 18.7272 5.80925 19.0723 5.45117C19.4173 5.0931 19.7266 4.70573 20 4.28906C19.6354 4.45833 19.2546 4.59831 18.8574 4.70898C18.4603 4.81966 18.0534 4.90104 17.6367 4.95312C18.0664 4.69271 18.4375 4.36719 18.75 3.97656C19.0625 3.58594 19.2969 3.14974 19.4531 2.66797Z" fill="#231F20"/>
</svg>
