<svg width="20" height="21" viewBox="0 0 20 21" fill="none" xmlns="http://www.w3.org/2000/svg">
<path d="M19.5664 5.69531C19.4492 5.26562 19.2311 4.89128 18.9121 4.57227C18.5931 4.25325 18.2188 4.04167 17.7891 3.9375C17.3984 3.83333 16.7734 3.7487 15.9141 3.68359C15.0547 3.63151 14.1855 3.59245 13.3066 3.56641C12.4277 3.54036 11.6562 3.52734 10.9922 3.52734C10.3281 3.51432 9.99609 3.50781 9.99609 3.50781C9.99609 3.50781 9.66406 3.51432 9 3.52734C8.33594 3.52734 7.56445 3.54036 6.68555 3.56641C5.80664 3.59245 4.9375 3.63151 4.07812 3.68359C3.21875 3.7487 2.59375 3.83333 2.20312 3.9375C1.77344 4.04167 1.39909 4.25325 1.08008 4.57227C0.761068 4.89128 0.542969 5.26562 0.425781 5.69531C0.321615 6.08594 0.24349 6.55469 0.191406 7.10156C0.139323 7.64844 0.10026 8.17578 0.0742188 8.68359C0.0481771 9.19141 0.0286458 9.62109 0.015625 9.97266C0.015625 10.3242 0.015625 10.5 0.015625 10.5C0.015625 10.5 0.015625 10.6758 0.015625 11.0273C0.0286458 11.3789 0.0481771 11.8086 0.0742188 12.3164C0.10026 12.8242 0.139323 13.3516 0.191406 13.8984C0.24349 14.4453 0.321615 14.9141 0.425781 15.3047C0.542969 15.7344 0.761068 16.1087 1.08008 16.4277C1.39909 16.7467 1.77344 16.9583 2.20312 17.0625C2.59375 17.1667 3.21875 17.2513 4.07812 17.3164C4.9375 17.3685 5.80664 17.4076 6.68555 17.4336C7.56445 17.4596 8.33594 17.4727 9 17.4727C9.66406 17.4857 9.99609 17.4922 9.99609 17.4922C9.99609 17.4922 10.3281 17.4857 10.9922 17.4727C11.6562 17.4727 12.4277 17.4596 13.3066 17.4336C14.1855 17.4076 15.0547 17.3685 15.9141 17.3164C16.7734 17.2513 17.3984 17.1667 17.7891 17.0625C18.2188 16.9583 18.5931 16.7467 18.9121 16.4277C19.2311 16.1087 19.4492 15.7344 19.5664 15.3047C19.6706 14.9141 19.7487 14.4453 19.8008 13.8984C19.8529 13.3516 19.8919 12.8242 19.918 12.3164C19.944 11.8086 19.9635 11.3789 19.9766 11.0273C19.9766 10.6758 19.9766 10.5 19.9766 10.5C19.9766 10.5 19.9766 10.3242 19.9766 9.97266C19.9635 9.62109 19.944 9.19141 19.918 8.68359C19.8919 8.17578 19.8529 7.64844 19.8008 7.10156C19.7487 6.55469 19.6706 6.08594 19.5664 5.69531ZM8.00391 13.4883V7.51172L13.1797 10.5L8.00391 13.4883Z" fill="#231F20"/>
</svg>
